<svg xmlns="http://www.w3.org/2000/svg" width="8" height="14" viewBox="0 0 8 14">
  <defs>
    <style>
      .cls-1 {
        fill: #fff;
        fill-rule: evenodd;
      }
    </style>
  </defs>
  <path id="_copy_8" data-name=" copy 8" class="cls-1" d="M1.381,0.006A1.3,1.3,0,0,0,.414.391a1.3,1.3,0,0,0,0,1.922L4.8,7.022,0.414,11.684a1.3,1.3,0,0,0,0,1.922,1.266,1.266,0,0,0,.943.384A1.267,1.267,0,0,0,2.3,13.607L7.63,7.936a1.353,1.353,0,0,0,0-1.874L2.3,0.391A1.148,1.148,0,0,0,1.381.006Z"/>
</svg>
