<?xml version="1.0" encoding="utf-8"?>
<!-- Generator: Adobe Illustrator 18.0.0, SVG Export Plug-In . SVG Version: 6.00 Build 0)  -->
<!DOCTYPE svg PUBLIC "-//W3C//DTD SVG 1.1//EN" "http://www.w3.org/Graphics/SVG/1.1/DTD/svg11.dtd">
<svg version="1.1" id="Warstwa_1" xmlns="http://www.w3.org/2000/svg" xmlns:xlink="http://www.w3.org/1999/xlink" x="0px" y="0px"
	 viewBox="0 0 48 48" enable-background="new 0 0 48 48" xml:space="preserve">
<g>
	<defs>
		<rect id="SVGID_1_" width="48" height="48"/>
	</defs>
	<clipPath id="SVGID_2_">
		<use xlink:href="#SVGID_1_"  overflow="visible"/>
	</clipPath>
	<path clip-path="url(#SVGID_2_)" fill="#1CC4FF" d="M24,0C10.7,0,0,10.7,0,24c0,13.3,10.7,24,24,24s24-10.7,24-24
		C48,10.7,37.3,0,24,0 M7,20.1c0-0.5,0.3-0.8,0.8-0.8H14c0.5,0,0.8,0.3,0.8,0.8c0,0.5-0.3,0.8-0.8,0.8H7.8C7.3,20.9,7,20.6,7,20.1
		 M9.3,24c0-0.5,0.3-0.8,0.8-0.8h6.2c0.5,0,0.8,0.3,0.8,0.8c0,0.5-0.3,0.8-0.8,0.8h-6.2C9.6,24.8,9.3,24.5,9.3,24 M37.6,18.4
		l-8.2,6.3c-0.6,0.5-1.5,0.8-2.3,0.8c-0.8,0-1.6-0.2-2.3-0.8l-8.3-6.3c-0.4-0.2-0.4-0.8-0.2-1.1c0.2-0.4,0.8-0.4,1.1-0.2l8.2,6.3
		c0.9,0.6,2,0.6,2.9,0l8.2-6.3c0.3-0.2,0.9-0.2,1.1,0.2S37.9,18.2,37.6,18.4 M37.7,30.7c-0.2,0.2-0.4,0.2-0.5,0.2
		c-0.2,0-0.4-0.1-0.5-0.2L32,26.1c-0.3-0.3-0.3-0.8,0-1.1s0.8-0.3,1.1,0l4.6,4.6C38,29.9,38,30.4,37.7,30.7 M11.6,27.9
		c0-0.5,0.3-0.8,0.8-0.8h6.2c0.5,0,0.8,0.3,0.8,0.8s-0.3,0.8-0.8,0.8h-6.2C11.9,28.6,11.6,28.3,11.6,27.9 M38.7,34H14
		c-0.5,0-0.8-0.3-0.8-0.8s0.3-0.8,0.8-0.8h24.7c0.5,0,0.8-0.3,0.8-0.8V16.3c0-0.5-0.3-0.8-0.8-0.8H14c-0.5,0-0.8-0.3-0.8-0.8
		c0-0.5,0.3-0.8,0.8-0.8h24.7c1.3,0,2.3,1,2.3,2.3v15.5C41,33,40,34,38.7,34"/>
</g>
</svg>
