<?xml version="1.0" encoding="utf-8"?>
<!-- Generator: Adobe Illustrator 18.0.0, SVG Export Plug-In . SVG Version: 6.00 Build 0)  -->
<!DOCTYPE svg PUBLIC "-//W3C//DTD SVG 1.1//EN" "http://www.w3.org/Graphics/SVG/1.1/DTD/svg11.dtd">
<svg version="1.1" id="Layer_1" xmlns="http://www.w3.org/2000/svg" xmlns:xlink="http://www.w3.org/1999/xlink" x="0px" y="0px"
	 viewBox="0 0 2223.2 311.9" enable-background="new 0 0 2223.2 311.9" xml:space="preserve">
<g>
	<path fill="none" d="M1676.1,103.9c-7.2,0-13.3,2.5-18.4,7.6c-5.1,5-7.6,11.9-7.6,20.6c0,8.7,2.6,15.8,7.7,21.2
		c5.1,5.4,11.3,8.1,18.4,8.1c7.1,0,13.2-2.6,18.3-7.9c5.1-5.2,7.6-12.2,7.6-20.9c0-8.7-2.5-15.7-7.6-20.9
		C1689.3,106.5,1683.2,103.9,1676.1,103.9z"/>
	<path fill="none" d="M1782.5,103.4c-6.8,0-12.4,2.1-16.9,6.4c-4.5,4.3-7,10.8-7.4,17.8h48.4c-0.1-7-2.4-13.2-7-17.6
		C1795,105.5,1789.3,103.4,1782.5,103.4z"/>
	<path fill="none" d="M2019.4,103.9c-7.2,0-13.3,2.5-18.4,7.6c-5.1,5-7.6,11.9-7.6,20.6c0,8.7,2.6,15.8,7.7,21.2
		c5.1,5.4,11.3,8.1,18.4,8.1c7.1,0,13.2-2.6,18.3-7.9c5.1-5.2,7.6-12.2,7.6-20.9c0-8.7-2.5-15.7-7.6-20.9
		C2032.7,106.5,2026.5,103.9,2019.4,103.9z"/>
	<path fill="#834795" d="M1528.5,64.2c-11.9,0-21.5,9.7-21.5,21.6v108.2v0c0,23.9-19.5,43.1-43.4,43.1c-23.9,0-43.5-19.5-43.5-43.5
		h-0.2V85.8c0-11.9-9.6-21.6-21.5-21.6c-11.9,0-21.5,9.7-21.5,21.6V194h0c0,47.8,38.7,86.5,86.5,86.5c47.8,0,86.5-38.7,86.5-86.5
		c0,0,0,0,0,0V85.8C1550,73.8,1540.4,64.2,1528.5,64.2z"/>
	<path fill="#37BEEE" d="M252,85.8c0-11.9-9.6-21.6-21.5-21.6c-11.9,0-21.5,9.7-21.5,21.6v108.2v-0.4h-0.1c0,24-19.4,43.3-43.3,43.3
		s-43.4-19.3-43.4-43.3H122V85.8c0-11.9-9.6-21.6-21.5-21.6S79,73.8,79,85.8V194h0c0,47.8,38.7,86.5,86.5,86.5S252,241.8,252,194
		c0,0,0,0,0,0V85.8z"/>
	<path fill="#37BEEE" d="M482.9,237.5h-86.5c-23.9,0-43.3-19.7-43.3-43.6V85.8c0-11.9-9.6-21.6-21.5-21.6
		c-11.9,0-21.5,9.7-21.5,21.6V194c0,47.8,38.5,86.6,86.3,86.6h86.5c11.9,0,21.6-9.6,21.6-21.5C504.5,247.1,494.8,237.5,482.9,237.5z
		"/>
	<path fill="#834795" d="M1326.8,237.5h-86.5c-21.7,0-39.6-16.1-42.8-36.8c-0.3-2.1-0.5-4.5-0.5-6.7V85.8c0-11.9-9.6-21.6-21.5-21.6
		c-11.9,0-21.5,9.7-21.5,21.6V194c0,47.8,38.5,86.6,86.3,86.6h86.5c11.9,0,21.6-9.6,21.6-21.5
		C1348.5,247.1,1338.8,237.5,1326.8,237.5z"/>
	<path fill="#834795" d="M1096,85.8c0-11.9-9.6-21.6-21.5-21.6c-11.9,0-21.5,9.7-21.5,21.6v108.2v-0.4h-0.1
		c0,24-19.4,43.3-43.3,43.3c-23.9,0-43.3-19.3-43.3-43.3H966v-42.8c0-16.6-4.5-32-12.6-45.2c-4.5-7.4-10.1-14-16.5-19.7
		c-3.7-3.3-7.7-6.3-12-8.9c-13.2-8.1-28.6-12.7-45.2-12.7c-25.8,0-49,11.3-64.9,29.3c-6.2-7-13.5-13-21.6-17.7
		c-12.7-7.4-27.5-11.6-43.3-11.6c-16.6,0-32,4.7-45.2,12.7c-4.3,2.6-8.3,5.6-12,8.9c-6.5,5.7-12.2,12.3-16.8,19.7
		c-8.1,13.2-12.9,28.6-12.9,45.2v0v21.6v14.4c0,11.9,10.1,21.6,22,21.6c11.9,0,22-9.7,22-21.6v-14.4v-21.6v0
		c0-23.9,19.1-43.3,43-43.3c23.9,0,43,19.4,43,43.3v36.1c0,11.9,9.6,21.6,21.5,21.6c11.9,0,21.5-9.7,21.5-21.6v-36v0
		c0-23.9,19.6-43.3,43.5-43.3c23.9,0,43.5,19.4,43.5,43.3v42.8h0c0,17,4.6,32.3,12.7,45.4c4.5,7.4,10.1,14.1,16.6,19.8
		c3.7,3.3,7.8,6.3,12,9c13.2,8.1,28.6,12.8,45.2,12.8c47.8,0,86.5-38.7,86.5-86.5c0,0,0,0,0,0V85.8z"/>
	<path fill="#37BEEE" d="M685,208.4c-11.9,0-22-9.7-22-21.6v7.2v0c0,23.9-19.1,43.3-43,43.3c-23.9,0-43-19.4-43-43.3V85.8
		c0-11.9-9.6-21.6-21.5-21.6c-11.9,0-21.5,9.7-21.5,21.6V194c0,47.8,38.5,86.5,86.3,86.5c16.6,0,31.9-4.7,45.1-12.7
		c4.3-2.6,8.2-5.6,12-8.9c6.5-5.7,12.2-12.3,16.7-19.7C702.2,226,707,210.5,707,194c0,0,0,0,0,0v-7.2
		C707,198.7,696.9,208.4,685,208.4z"/>
	<path d="M1702,109.5c-2-5-6.2-9-11.1-12.1c-4.9-3.1-10.6-4.6-17.2-4.6c-10.6,0-19.3,3.6-26.3,10.9c-7,7.2-10.4,16.7-10.4,28.5
		c0,11.7,3.5,21.4,10.5,28.9c7,7.5,15.8,11.3,26.2,11.3c6.5,0,12.2-1.6,17.1-4.7c4.9-3.1,9.1-7.2,11.1-12.3v16.1h13v-104h-13V109.5z
		 M1694.4,153.6c-5.1,5.2-11.2,7.9-18.3,7.9c-7.1,0-13.2-2.7-18.4-8.1c-5.1-5.4-7.7-12.5-7.7-21.2c0-8.7,2.5-15.6,7.6-20.6
		c5.1-5,11.2-7.6,18.4-7.6c7.2,0,13.3,2.6,18.4,7.9c5.1,5.2,7.6,12.2,7.6,20.9C1702.1,141.4,1699.5,148.3,1694.4,153.6z"/>
	<path d="M1782.8,92.8c-11.2,0-20.3,3.6-27.3,10.9c-7,7.2-10.5,16.9-10.5,28.8c0,12,3.5,21.6,10.4,28.9c6.9,7.3,15.9,10.9,26.9,10.9
		c9,0,16.4-2,22.4-6.4c5.9-4.4,10.1-10.5,12.6-16.5h-13.7c-1.7,3-4.3,6.7-7.9,9c-3.6,2.3-8,3.4-13.3,3.4c-6.9,0-12.6-2.5-17-7
		c-4.4-4.4-6.8-10.5-7.2-18.5h61.3c0.4-2,0.6-4.6,0.6-7.3c0-10.7-3.4-19.3-10.2-26.2C1802.9,96.2,1794,92.8,1782.8,92.8z
		 M1758.2,127.5c0.5-7,2.9-13.4,7.4-17.8c4.5-4.3,10.1-6.5,16.9-6.5c6.8,0,12.5,2.1,17,6.6c4.6,4.4,6.9,10.7,7,17.7H1758.2z"/>
	<path d="M1889.1,130.9c-4.4-1.2-8.9-2.2-13.3-3.1c-4.4-0.9-8.2-2.3-11.4-4.3c-3.1-2-4.7-4.7-4.7-8.3c0-3.6,1.4-6.5,4.1-8.8
		c2.8-2.3,6.5-3.4,11.4-3.4c4.8,0,8.6,1.5,11.3,4.1c2.7,2.6,4.2,5.5,4.3,10.5h13.2c-0.5-8-3.1-13.7-8-18c-4.9-4.3-11.6-6.6-20.1-6.6
		c-8.6,0-15.5,2.2-20.9,6.6c-5.4,4.4-8.1,9.9-8.1,16.3c0,4.4,1.1,8,3.4,10.9c2.2,2.9,5,4.9,8.4,6.1c3.4,1.2,7,2.3,11,3.3
		c4,1,7.6,1.9,11,2.7c3.4,0.7,6.2,2.1,8.4,4.1c2.2,2,3.4,4.6,3.4,7.9c0,3.3-1.4,6.1-4.3,8.2c-2.9,2.2-6.8,3.2-11.8,3.2
		c-5,0-8.9-1.1-11.8-3.6c-2.9-2.6-4.4-6.1-4.6-10.1H1847c0.5,7,3.3,13.3,8.5,17.6c5.2,4.3,12.1,6.3,20.7,6.3c8.6,0,15.6-2.1,21-6.2
		c5.4-4.1,8.1-9.1,8.1-15c0-5.9-1.6-10.5-4.7-13.8C1897.3,134.3,1893.5,132.1,1889.1,130.9z"/>
	<path d="M1944.1,64.4c-2.4,0-4.4,0.8-6.1,2.5c-1.7,1.7-2.5,3.7-2.5,6.2c0,2.4,0.8,4.5,2.5,6.2c1.6,1.7,3.7,2.5,6.1,2.5
		c2.4,0,4.5-0.8,6.2-2.5c1.7-1.7,2.5-3.7,2.5-6.2c0-2.4-0.8-4.5-2.5-6.2C1948.5,65.2,1946.5,64.4,1944.1,64.4z"/>
	<rect x="1938" y="94.5" width="12" height="77"/>
	<path d="M2045,109.5c-2-5-6-9-10.9-12.1c-4.9-3.1-10.5-4.6-17.1-4.6c-10.6,0-19.3,3.6-26.2,10.9c-7,7.2-10.4,16.7-10.4,28.5
		c0,11.7,3.5,21.4,10.5,28.9c7,7.5,15.8,11.3,26.2,11.3c6.5,0,12.1-1.6,17-4.7c4.9-3.1,8.9-7.2,10.9-12.3v17.7c0,7.9-2,14-6.5,18.3
		c-4.4,4.3-9.9,6.5-16.5,6.5c-6.6,0-12.2-1.5-16.6-4.4c-4.5-2.9-7.3-7-8.5-11h-12.5c0.9,8,4.8,14.3,11.7,19.1
		c6.9,4.9,15.5,7.3,26,7.3c10.5,0,19-3.3,25.8-10c6.8-6.7,10.1-15.3,10.1-25.9V94.5h-13V109.5z M2037.8,153.6
		c-5.1,5.2-11.2,7.9-18.3,7.9c-7.1,0-13.2-2.7-18.4-8.1c-5.1-5.4-7.7-12.5-7.7-21.2c0-8.7,2.5-15.6,7.6-20.6
		c5.1-5,11.2-7.6,18.4-7.6c7.2,0,13.3,2.6,18.4,7.9c5.1,5.2,7.6,12.2,7.6,20.9C2045.4,141.4,2042.9,148.3,2037.8,153.6z"/>
	<path d="M2152.5,101.3c-5.7-5.7-12.8-8.5-21.4-8.5c-11.5,0-20.1,4.6-25.1,13.7V94.5h-13v77h13v-43.9c0-7.8,2-13.7,5.7-17.7
		c3.8-4,9-6,15.6-6c6.6,0,11.5,2,15.3,6c3.7,4,5.4,9.9,5.4,17.7v43.9h13v-46C2161,115.1,2158.2,107,2152.5,101.3z"/>
</g>
</svg>
