<?xml version="1.0" encoding="utf-8"?>
<!-- Generator: Adobe Illustrator 18.0.0, SVG Export Plug-In . SVG Version: 6.00 Build 0)  -->
<!DOCTYPE svg PUBLIC "-//W3C//DTD SVG 1.1//EN" "http://www.w3.org/Graphics/SVG/1.1/DTD/svg11.dtd">
<svg version="1.1" id="Layer_1" xmlns="http://www.w3.org/2000/svg" xmlns:xlink="http://www.w3.org/1999/xlink" x="0px" y="0px"
	 viewBox="0 0 2201 269" enable-background="new 0 0 2201 269" xml:space="preserve">
<g>
	<path fill="none" d="M1782.5,72c-6.8,0-12.4,2-16.9,6.3c-4.5,4.3-7,10.7-7.4,17.7h48.4c-0.1-7-2.4-13.1-7-17.5
		C1795,74,1789.3,72,1782.5,72z"/>
	<path fill="none" d="M1676.1,72.6c-7.2,0-13.3,2.5-18.4,7.6c-5.1,5.1-7.6,11.9-7.6,20.6s2.6,15.8,7.7,21.2
		c5.1,5.4,11.3,8.1,18.4,8.1c7.1,0,13.2-2.6,18.3-7.9c5.1-5.2,7.6-12.2,7.6-20.9c0-8.7-2.5-15.7-7.6-20.9
		C1689.3,75.2,1683.2,72.6,1676.1,72.6z"/>
	<path fill="none" d="M2019.4,72.6c-7.2,0-13.3,2.5-18.4,7.6c-5.1,5.1-7.6,11.9-7.6,20.6s2.6,15.8,7.7,21.2
		c5.1,5.4,11.3,8.1,18.4,8.1c7.1,0,13.2-2.6,18.3-7.9c5.1-5.2,7.6-12.2,7.6-20.9c0-8.7-2.5-15.7-7.6-20.9
		C2032.7,75.2,2026.5,72.6,2019.4,72.6z"/>
	<path fill="#FFFFFF" d="M1528.5,32.8c-11.9,0-21.5,9.7-21.5,21.6v108.2v0c0,23.9-19.5,43.5-43.4,43.5c-23.9,0-43.5-19.1-43.5-43.1
		h-0.2V54.5c0-11.9-9.6-21.6-21.5-21.6c-11.9,0-21.5,9.7-21.5,21.6v108.2h0c0,47.8,38.7,86.5,86.5,86.5c47.8,0,86.5-38.7,86.5-86.5
		c0,0,0,0,0,0V54.5C1550,42.5,1540.4,32.8,1528.5,32.8z"/>
	<path fill="#FFFFFF" d="M252,54.5c0-11.9-9.6-21.6-21.5-21.6c-11.9,0-21.5,9.7-21.5,21.6v108.2v0.4h-0.1c0,24-19.4,43.3-43.3,43.3
		S122.2,187,122.2,163H122V54.5c0-11.9-9.6-21.6-21.5-21.6S79,42.5,79,54.5v108.2h0c0,47.8,38.7,86.5,86.5,86.5s86.5-38.7,86.5-86.5
		c0,0,0,0,0,0V54.5z"/>
	<path fill="#FFFFFF" d="M482.9,206h-86.5c-23.9,0-43.3-19.5-43.3-43.4V54.5c0-11.9-9.6-21.6-21.5-21.6c-11.9,0-21.5,9.7-21.5,21.6
		v108.2c0,47.8,38.5,86.4,86.3,86.4h86.5c11.9,0,21.6-9.6,21.6-21.5S494.8,206,482.9,206z"/>
	<path fill="#FFFFFF" d="M1326.8,206h-86.5c-21.7,0-39.6-16-42.8-36.7c-0.3-2.1-0.5-4.4-0.5-6.6V54.5c0-11.9-9.6-21.6-21.5-21.6
		c-11.9,0-21.5,9.7-21.5,21.6v108.2c0,47.8,38.5,86.4,86.3,86.4h86.5c11.9,0,21.6-9.6,21.6-21.5S1338.8,206,1326.8,206z"/>
	<path fill="#FFFFFF" d="M1096,54.5c0-11.9-9.6-21.6-21.5-21.6c-11.9,0-21.5,9.7-21.5,21.6v108.2v0.4h-0.1c0,24-19.4,43.3-43.3,43.3
		c-23.9,0-43.3-19.3-43.3-43.3H966v-43.6c0-16.6-4.5-32-12.6-45.2c-4.5-7.4-10.1-14-16.5-19.7c-3.7-3.3-7.7-6.3-12-8.9
		c-13.2-8.1-28.6-12.7-45.2-12.7c-25.8,0-49,11.3-64.9,29.3c-6.2-7-13.5-13-21.6-17.7c-12.7-7.4-27.5-11.6-43.3-11.6
		c-16.6,0-32,4.7-45.2,12.7c-4.3,2.6-8.3,5.6-12,8.9c-6.5,5.7-12.2,12.3-16.8,19.7c-8.1,13.2-12.9,28.6-12.9,45.2v0V141v14.4v7.2v0
		c0,23.9-19.1,43.3-43,43.3c-23.9,0-43-19.4-43-43.3V54.5c0-11.9-9.6-21.6-21.5-21.6c-11.9,0-21.5,9.7-21.5,21.6v108.2
		c0,47.8,38.5,86.5,86.3,86.5c16.6,0,31.9-4.7,45.1-12.7c4.3-2.6,8.2-5.6,12-8.9c6.5-5.7,12.2-12.3,16.7-19.7
		c8.1-13.2,12.9-28.6,12.9-45.2c0,0,0,0,0,0v-7.2V141v-21.6v0c0-23.9,19.1-43.3,43-43.3c23.9,0,43,19.4,43,43.3v36.1
		c0,11.9,9.6,21.6,21.5,21.6c11.9,0,21.5-9.7,21.5-21.6v-36v0c0-23.9,19.6-43.3,43.5-43.3c23.9,0,43.5,19.4,43.5,43.3V163h0
		c0,16,4.6,31.9,12.7,45c4.5,7.4,10.1,13.9,16.6,19.6c3.7,3.3,7.8,6.2,12,8.9c13.2,8.1,28.6,12.7,45.2,12.7
		c47.8,0,86.5-38.8,86.5-86.6c0,0,0,0,0,0V54.5z"/>
	<path fill="#FFFFFF" d="M1702,78.2c-2-5-6.2-9-11.1-12.1c-4.9-3.1-10.6-4.6-17.2-4.6c-10.6,0-19.3,3.6-26.3,10.9
		c-7,7.2-10.4,16.7-10.4,28.5c0,11.7,3.5,21.4,10.5,28.9c7,7.5,15.8,11.3,26.2,11.3c6.5,0,12.2-1.6,17.1-4.7
		c4.9-3.1,9.1-7.2,11.1-12.3V140h13V36h-13V78.2z M1694.4,122.2c-5.1,5.2-11.2,7.9-18.3,7.9c-7.1,0-13.2-2.7-18.4-8.1
		c-5.1-5.4-7.7-12.5-7.7-21.2s2.5-15.6,7.6-20.6c5.1-5,11.2-7.6,18.4-7.6c7.2,0,13.3,2.6,18.4,7.9c5.1,5.2,7.6,12.2,7.6,20.9
		C1702.1,110,1699.5,117,1694.4,122.2z"/>
	<path fill="#FFFFFF" d="M1782.8,61.5c-11.2,0-20.3,3.6-27.3,10.9c-7,7.2-10.5,16.9-10.5,28.8c0,12,3.5,21.6,10.4,28.9
		c6.9,7.3,15.9,10.9,26.9,10.9c9,0,16.4-2.1,22.4-6.5c5.9-4.4,10.1-10.6,12.6-16.6h-13.7c-1.7,4-4.3,6.8-7.9,9.1
		c-3.6,2.3-8,3.4-13.3,3.4c-6.9,0-12.6-2.1-17-6.5c-4.4-4.4-6.8-11-7.2-18h61.3c0.4-3,0.6-5,0.6-7.7c0-10.7-3.4-19.5-10.2-26.4
		C1802.9,65,1794,61.5,1782.8,61.5z M1758.2,96c0.5-7,2.9-13.3,7.4-17.7c4.5-4.3,10.1-6.4,16.9-6.4c6.8,0,12.5,2.1,17,6.5
		c4.6,4.4,6.9,10.6,7,17.6H1758.2z"/>
	<path fill="#FFFFFF" d="M1889.1,99.6c-4.4-1.2-8.9-2.2-13.3-3.1c-4.4-0.9-8.2-2.3-11.4-4.3c-3.1-2-4.7-4.7-4.7-8.3
		c0-3.6,1.4-6.5,4.1-8.8c2.8-2.3,6.5-3.4,11.4-3.4c4.8,0,8.6,1.3,11.3,4c2.7,2.6,4.2,6.4,4.3,10.4h13.2c-0.5-8-3.1-13.6-8-17.9
		c-4.9-4.3-11.6-6.5-20.1-6.5c-8.6,0-15.5,2.2-20.9,6.7c-5.4,4.4-8.1,9.9-8.1,16.3c0,4.4,1.1,8,3.4,10.9c2.2,2.9,5,4.9,8.4,6.1
		c3.4,1.2,7,2.3,11,3.3c4,1,7.6,1.9,11,2.7c3.4,0.7,6.2,2.1,8.4,4.1c2.2,2,3.4,4.6,3.4,7.9c0,3.3-1.4,6.1-4.3,8.2
		c-2.9,2.2-6.8,3.2-11.8,3.2c-5,0-8.9-1.2-11.8-3.7c-2.9-2.6-4.4-6.2-4.6-10.2H1847c0.5,7,3.3,13.4,8.5,17.7
		c5.2,4.3,12.1,6.4,20.7,6.4c8.6,0,15.6-2.1,21-6.1c5.4-4.1,8.1-9.1,8.1-15c0-5.9-1.6-10.5-4.7-13.8
		C1897.3,103,1893.5,100.8,1889.1,99.6z"/>
	<rect x="1938" y="63" fill="#FFFFFF" width="12" height="77"/>
	<path fill="#FFFFFF" d="M1944.1,33.1c-2.4,0-4.4,0.8-6.1,2.5c-1.7,1.7-2.5,3.7-2.5,6.2c0,2.4,0.8,4.5,2.5,6.2
		c1.6,1.7,3.7,2.5,6.1,2.5c2.4,0,4.5-0.8,6.2-2.5c1.7-1.7,2.5-3.7,2.5-6.2c0-2.4-0.8-4.5-2.5-6.2
		C1948.5,33.9,1946.5,33.1,1944.1,33.1z"/>
	<path fill="#FFFFFF" d="M2045,78.2c-2-5-6-9-10.9-12.1c-4.9-3.1-10.5-4.6-17.1-4.6c-10.6,0-19.3,3.6-26.2,10.9
		c-7,7.2-10.4,16.7-10.4,28.5c0,11.7,3.5,21.4,10.5,28.9c7,7.5,15.8,11.3,26.2,11.3c6.5,0,12.1-1.6,17-4.7
		c4.9-3.1,8.9-7.2,10.9-12.3v17.7c0,7.9-2,14-6.5,18.3c-4.4,4.3-9.9,6.5-16.5,6.5c-6.6,0-12.2-1.6-16.6-4.5
		c-4.5-2.9-7.3-6.1-8.5-11.1h-12.5c0.9,8,4.8,14.4,11.7,19.2c6.9,4.9,15.5,7.4,26,7.4c10.5,0,19-3.3,25.8-10
		c6.8-6.7,10.1-15.3,10.1-25.8V63h-13V78.2z M2037.8,122.2c-5.1,5.2-11.2,7.9-18.3,7.9c-7.1,0-13.2-2.7-18.4-8.1
		c-5.1-5.4-7.7-12.5-7.7-21.2s2.5-15.6,7.6-20.6c5.1-5,11.2-7.6,18.4-7.6c7.2,0,13.3,2.6,18.4,7.9c5.1,5.2,7.6,12.2,7.6,20.9
		C2045.4,110,2042.9,117,2037.8,122.2z"/>
	<path fill="#FFFFFF" d="M2152.5,70c-5.7-5.7-12.8-8.5-21.4-8.5c-11.5,0-20.1,4.6-25.1,13.7V63h-13v77h13V96.3
		c0-7.8,2-13.7,5.7-17.7c3.8-4,9-6,15.6-6c6.6,0,11.5,2,15.3,6c3.7,4,5.4,9.9,5.4,17.7V140h13V94.2C2161,83.7,2158.2,75.7,2152.5,70
		z"/>
</g>
</svg>
