<?xml version="1.0" encoding="utf-8"?>
<!-- Generator: Adobe Illustrator 18.0.0, SVG Export Plug-In . SVG Version: 6.00 Build 0)  -->
<!DOCTYPE svg PUBLIC "-//W3C//DTD SVG 1.1//EN" "http://www.w3.org/Graphics/SVG/1.1/DTD/svg11.dtd">
<svg version="1.1" id="Warstwa_1" xmlns="http://www.w3.org/2000/svg" xmlns:xlink="http://www.w3.org/1999/xlink" x="0px" y="0px"
	 viewBox="0 0 152.5 127.5" enable-background="new 0 0 152.5 127.5" xml:space="preserve">
<g>
	<circle fill="#D8F5FF" cx="74.9" cy="63.2" r="60"/>
	<g>
		<path fill="none" d="M139.4,21.4c0-5.5-4.5-10-10-10c-5.5,0-10,4.5-10,10c0,0.3,0,0.7,0.1,1h5.2c1.9,0,3.4,1.5,3.4,3.4v5.4
			c0.4,0.1,0.9,0.1,1.3,0.1C134.9,31.4,139.4,26.9,139.4,21.4z"/>
		<circle fill="none" cx="13" cy="111.5" r="4.3"/>
		<path fill="#009FE3" d="M119.5,22.4c0-0.3-0.1-0.7-0.1-1c0-5.5,4.5-10,10-10c5.5,0,10,4.5,10,10c0,5.5-4.5,10-10,10
			c-0.4,0-0.9,0-1.3-0.1v0.9c0.4,0.1,0.9,0.1,1.3,0.1c6,0,10.9-4.9,10.9-10.9c0-6-4.9-10.9-10.9-10.9c-6,0-10.9,4.9-10.9,10.9
			c0,0.3,0,0.7,0,1H119.5z"/>
		<path fill="#009FE3" d="M144.8,26.2l5.1-0.9l0-7.6l-5.1-0.9c-0.3-1-0.7-1.9-1.1-2.8l2.9-4.2l-5.4-5.4l-4.2,2.9
			c-0.9-0.5-1.8-0.9-2.8-1.1L133.2,1h-7.6l-0.9,5.1c-1,0.3-1.9,0.7-2.8,1.1l-4.2-2.9l-5.4,5.4l2.9,4.2c-0.5,0.9-0.9,1.8-1.1,2.8
			l-5.1,0.9v4.8h0.9v-4l4.9-0.9l0.1-0.3c0.3-1.1,0.7-2.1,1.3-3.1l0.1-0.2l-2.8-4.1l4.3-4.3l4.1,2.8l0.2-0.1c1-0.5,2-1,3.1-1.3
			l0.3-0.1l0.9-4.9h6.1l0.9,4.9l0.3,0.1c1.1,0.3,2.1,0.7,3.1,1.3l0.2,0.1l4.1-2.8l4.3,4.3l-2.8,4.1l0.1,0.2c0.5,1,1,2,1.3,3.1
			l0.1,0.3l4.9,0.9l0,6.1l-4.9,0.9l-0.1,0.3c-0.3,1.1-0.7,2.1-1.3,3.1l-0.1,0.2l2.8,4.1l-4.3,4.3l-4.1-2.8l-0.2,0.1
			c-1,0.5-2,1-3.1,1.3l-0.3,0.1l-0.9,4.9h-4.3v0.9h5.1l0.9-5.1c1-0.3,1.9-0.7,2.8-1.1l4.2,2.9l5.4-5.4l-2.9-4.2
			C144.1,28,144.5,27.1,144.8,26.2z"/>
		<path fill="#FFFFFF" d="M110.5,96.4V86.1L29.9,86l0-17.4h-6.1v25.6c0,1.2,1,2.1,2.1,2.1h41.2v-0.1h16.3v0.1H110.5z M75.3,94.2
			c-1.7,0-3.1-1.4-3.1-3.1s1.4-3.1,3.1-3.1c1.7,0,3.1,1.4,3.1,3.1S77.1,94.2,75.3,94.2z"/>
		<path fill="#FFFFFF" d="M126.8,25.9c0-1.2-1-2.1-2.1-2.1H48.5v5.9l72.2,0.1l0,37.7h6.1V25.9z M80.3,27h-10c-0.3,0-0.6-0.2-0.6-0.6
			s0.2-0.6,0.6-0.6h10c0.3,0,0.6,0.2,0.6,0.6S80.6,27,80.3,27z"/>
		<path fill="#662483" d="M128.1,40.9h4.3l0.9-4.9l0.3-0.1c1.1-0.3,2.1-0.7,3.1-1.3l0.2-0.1l4.1,2.8l4.3-4.3l-2.8-4.1l0.1-0.2
			c0.5-1,1-2,1.3-3.1l0.1-0.3l4.9-0.9l0-6.1l-4.9-0.9l-0.1-0.3c-0.3-1.1-0.7-2.1-1.3-3.1l-0.1-0.2l2.8-4.1L141,5.5L137,8.3l-0.2-0.1
			c-1-0.5-2-1-3.1-1.3l-0.3-0.1l-0.9-4.9h-6.1l-0.9,4.9l-0.3,0.1c-1.1,0.3-2.1,0.7-3.1,1.3l-0.2,0.1l-4.1-2.8l-4.3,4.3l2.8,4.1
			l-0.1,0.2c-0.5,1-1,2-1.3,3.1l-0.1,0.3l-4.9,0.9v4H109H48.5V7.6c0-1.9-1.5-3.4-3.4-3.4H7.4C5.5,4.1,4,5.7,4,7.6v57.7
			c0,1.9,1.5,3.4,3.4,3.4h15.2v25.6c0,1.9,1.5,3.4,3.4,3.4h41.2v11.9h-6.8c-1.3,0-2.3,1.4-2.3,3.1s1,3.1,2.3,3.1h29.9
			c1.3,0,2.3-1.4,2.3-3.1s-1-3.1-2.3-3.1h-6.8V97.7h27v14.5c0,1.9,1.5,3.4,3.4,3.4h21.1c1.9,0,3.4-1.5,3.4-3.4V70.8
			c0-1.9-1.5-3.4-3.4-3.4h-6.8V41.8V40.9z M137.1,112.2c0,1.2-1,2.1-2.1,2.1h-21.1c-1.2,0-2.1-1-2.1-2.1V70.8c0-1.2,1-2.1,2.1-2.1
			h21.1c1.2,0,2.1,1,2.1,2.1V112.2z M82.2,109.6H68.5v-12h13.7V109.6z M90.3,114.5H60.4c-0.5,0-1-0.8-1-1.8c0-1.1,0.5-1.8,1-1.8h6.8
			h16.3h6.8c0.5,0,1,0.8,1,1.8C91.3,113.8,90.8,114.5,90.3,114.5z M67.2,96.3v0.1H26c-1.2,0-2.1-1-2.1-2.1V68.6h6.1l0,17.4l80.5,0.1
			v10.3h-27v-0.1H67.2z M5.3,7.6c0-1.2,1-2.1,2.1-2.1h37.7c1.2,0,2.1,1,2.1,2.1v57.7c0,1.2-1,2.1-2.1,2.1H7.4c-1.2,0-2.1-1-2.1-2.1
			V7.6z M119.3,67.4h-5.4c-0.2,0-0.4,0-0.6,0.1c-0.3,0.1-0.6,0.2-0.9,0.3c-1.1,0.6-1.8,1.7-1.8,3v8.4v0.9v4.5l-79.1-0.1l0-15.9h6
			h0.9h6.7c1.9,0,3.4-1.5,3.4-3.4v-20v-0.9v-4.1v-4.4v-4.7l70.7,0.1L119.3,67.4z M120.7,67.4l0-37.7l-72.2-0.1v-5.9h76.1
			c1.2,0,2.1,1,2.1,2.1v41.5H120.7z M118.5,21.4c0-6,4.9-10.9,10.9-10.9c6,0,10.9,4.9,10.9,10.9c0,6-4.9,10.9-10.9,10.9
			c-0.4,0-0.9,0-1.3-0.1v-0.9v-5.4c0-1.9-1.5-3.4-3.4-3.4h-5.2h-0.9C118.5,22.1,118.5,21.8,118.5,21.4z"/>
		<path fill="#FFFFFF" d="M92.6,45.3v33.9h17.8v-8.4c0-1.3,0.8-2.5,1.8-3V45.3H92.6z"/>
		<path fill="#FFFFFF" d="M58,79.2V45.3h-9.5v20c0,1.9-1.5,3.4-3.4,3.4h-6.7v10.5H58z"/>
		<rect x="66" y="45.3" fill="#FFFFFF" width="19.7" height="33.9"/>
		<path fill="#FFFFFF" d="M48.5,31.1v4.7h64.8v4.4H48.5v4.1H59v35.8H37.5V68.6h-6l0,15.9l79.1,0.1v-4.5H91.7V44.4h21.5v23.1
			c0.2,0,0.4-0.1,0.6-0.1h5.4l0-36.2L48.5,31.1z M86.6,80.1H65.1V44.4h21.5V80.1z"/>
		<rect x="68.5" y="97.5" fill="#FFFFFF" width="13.7" height="12"/>
		<path fill="#FFFFFF" d="M90.3,110.9h-6.8H67.2h-6.8c-0.5,0-1,0.8-1,1.8c0,1.1,0.5,1.8,1,1.8h29.9c0.5,0,1-0.8,1-1.8
			C91.3,111.6,90.8,110.9,90.3,110.9z"/>
		<circle fill="#662483" cx="75.3" cy="91.1" r="3.1"/>
		<path fill="#662483" d="M80.3,25.9h-10c-0.3,0-0.6,0.2-0.6,0.6S70,27,70.4,27h10c0.3,0,0.6-0.2,0.6-0.6S80.6,25.9,80.3,25.9z"/>
		<rect x="48.5" y="35.8" fill="#009FE3" width="64.8" height="4.4"/>
		<path fill="#009FE3" d="M91.7,44.4v35.8h18.7v-0.9H92.6V45.3h19.7v22.5c0.3-0.1,0.6-0.3,0.9-0.3V44.4H91.7z"/>
		<polygon fill="#009FE3" points="59,80.1 59,44.4 48.5,44.4 48.5,45.3 58,45.3 58,79.2 38.4,79.2 38.4,68.6 37.5,68.6 37.5,80.1 		
			"/>
		<path fill="#662483" d="M65.1,80.1h21.5V44.4H65.1V80.1z M66,45.3h19.7v33.9H66V45.3z"/>
		<path fill="#00CFFF" d="M134.9,68.6h-21.1c-1.2,0-2.1,1-2.1,2.1v41.4c0,1.2,1,2.1,2.1,2.1h21.1c1.2,0,2.1-1,2.1-2.1V70.8
			C137.1,69.6,136.1,68.6,134.9,68.6z M126.3,112.5h-3.8c-0.7,0-1.3-0.6-1.3-1.3c0-0.7,0.6-1.3,1.3-1.3h3.8c0.7,0,1.3,0.6,1.3,1.3
			C127.6,111.9,127,112.5,126.3,112.5z M134.6,108.1h-20.4V73.2h20.4V108.1z"/>
		<rect x="119.9" y="86.2" fill="#FFFFFF" width="9.1" height="15.9"/>
		<path fill="#FFFFFF" d="M115.5,74.5v32.3h17.8V74.5H115.5z M129.9,103H119V85.2h10.9V103z M130,83.1h-11.1v-4.4H130V83.1z"/>
		<path fill="#662483" d="M114.2,73.2v34.9h20.4V73.2H114.2z M133.3,106.8h-17.8V74.5h17.8V106.8z"/>
		<path fill="#662483" d="M126.3,109.9h-3.8c-0.7,0-1.3,0.6-1.3,1.3c0,0.7,0.6,1.3,1.3,1.3h3.8c0.7,0,1.3-0.6,1.3-1.3
			C127.6,110.5,127,109.9,126.3,109.9z"/>
		<rect x="118.9" y="78.7" fill="#009FE3" width="11.1" height="4.4"/>
		<path fill="#009FE3" d="M119,85.2V103h10.9V85.2H119z M128.9,102.1h-9.1V86.2h9.1V102.1z"/>
		<path fill="#FFFFFF" d="M7.4,67.4h37.7c1.2,0,2.1-1,2.1-2.1V7.6c0-1.2-1-2.1-2.1-2.1H7.4c-1.2,0-2.1,1-2.1,2.1v57.7
			C5.3,66.4,6.2,67.4,7.4,67.4z M29.6,65.5h-5c-0.9,0-1.7-0.7-1.7-1.7c0-0.9,0.7-1.7,1.7-1.7h5c0.9,0,1.7,0.7,1.7,1.7
			C31.3,64.8,30.5,65.5,29.6,65.5z M8.6,8.8h35.3v51.5H8.6V8.8z"/>
		<rect x="28.4" y="21.9" fill="#FFFFFF" width="8.8" height="13.9"/>
		<rect x="15.1" y="21.9" fill="#FFFFFF" width="9.1" height="14.3"/>
		<path fill="#FFFFFF" d="M42.6,59V10.1H9.9V59H42.6z M38.1,55.2H27.5V39.3h10.7V55.2z M38.1,36.8H27.5V21h10.7V36.8z M14.1,14.2
			h24.4v4.4H14.1V14.2z M14.2,21h10.9v16.1H14.2V21z M14.4,39.3h10.7v15.9H14.4V39.3z"/>
		<rect x="15.3" y="40.2" fill="#FFFFFF" width="8.8" height="14"/>
		<rect x="28.4" y="40.2" fill="#FFFFFF" width="8.8" height="14"/>
		<path fill="#662483" d="M43.9,60.3V8.8H8.6v51.5H43.9z M9.9,10.1h32.8V59H9.9V10.1z"/>
		<path fill="#662483" d="M29.6,62.2h-5c-0.9,0-1.7,0.7-1.7,1.7c0,0.9,0.7,1.7,1.7,1.7h5c0.9,0,1.7-0.7,1.7-1.7
			C31.3,62.9,30.5,62.2,29.6,62.2z"/>
		<rect x="14.1" y="14.2" fill="#009FE3" width="24.4" height="4.4"/>
		<path fill="#009FE3" d="M25.1,37.1V21H14.2v16.1H25.1z M15.1,21.9h9.1v14.3h-9.1V21.9z"/>
		<path fill="#009FE3" d="M27.5,21v15.8h10.7V21H27.5z M37.2,35.8h-8.8V21.9h8.8V35.8z"/>
		<path fill="#009FE3" d="M25.1,55.2V39.3H14.4v15.9H25.1z M15.3,40.2h8.8v14h-8.8V40.2z"/>
		<path fill="#009FE3" d="M27.5,39.3v15.9h10.7V39.3H27.5z M37.2,54.2h-8.8v-14h8.8V54.2z"/>
		<path fill="#00CFFF" d="M18.7,108.4l1.2-1.7l-2-2l-1.7,1.2c-0.4-0.2-0.9-0.4-1.3-0.6l-0.4-2.1h-2.8l-0.4,2.1
			c-0.5,0.1-0.9,0.3-1.3,0.6l-1.7-1.2l-2,2l1.2,1.7c-0.2,0.4-0.4,0.9-0.6,1.3l-2.1,0.4v2.8l2.1,0.4c0.1,0.5,0.3,0.9,0.6,1.3
			l-1.2,1.7l2,2l1.7-1.2c0.4,0.2,0.9,0.4,1.3,0.6l0.4,2.1h2.8l0.4-2.1c0.5-0.1,0.9-0.3,1.3-0.6l1.7,1.2l2-2l-1.2-1.7
			c0.2-0.4,0.4-0.9,0.6-1.3l2.1-0.4v-2.8l-2.1-0.4C19.1,109.2,18.9,108.8,18.7,108.4z M13,115.8c-2.4,0-4.3-1.9-4.3-4.3
			c0-2.4,1.9-4.3,4.3-4.3s4.3,1.9,4.3,4.3C17.3,113.9,15.4,115.8,13,115.8z"/>
	</g>
</g>
</svg>
