<?xml version="1.0" encoding="utf-8"?>
<!-- Generator: Adobe Illustrator 18.0.0, SVG Export Plug-In . SVG Version: 6.00 Build 0)  -->
<!DOCTYPE svg PUBLIC "-//W3C//DTD SVG 1.1//EN" "http://www.w3.org/Graphics/SVG/1.1/DTD/svg11.dtd">
<svg version="1.1" id="Warstwa_1" xmlns="http://www.w3.org/2000/svg" xmlns:xlink="http://www.w3.org/1999/xlink" x="0px" y="0px"
	 viewBox="0 0 139.5 125" enable-background="new 0 0 139.5 125" xml:space="preserve">
<circle fill="#D8F5FF" cx="68" cy="62.2" r="60"/>
<g>
	<path fill="none" d="M131.1,107.3l7.5-7.5c-0.1-0.1-0.3-0.2-0.4-0.2H124c-0.2,0-0.3,0.1-0.4,0.2L131.1,107.3z"/>
	<polygon fill="none" points="133.9,105.5 138.7,109.3 138.7,100.7 	"/>
	<polygon fill="none" points="123.4,100.7 123.4,109.3 128.2,105.5 	"/>
	<path fill="none" d="M133.4,106.1l-2.3,2.3l-2.3-2.3l-5.1,4.1c0.1,0.1,0.2,0.2,0.4,0.2h14.1c0.2,0,0.3-0.1,0.4-0.2L133.4,106.1z"/>
	<path fill="#662483" d="M3.5,15.8C3.5,15.8,3.5,15.9,3.5,15.8l0,19.3c0,0.1,0,0.1,0,0.2l10.8-8.7L3.5,15.8z"/>
	<path fill="#00CFFF" d="M5.2,36.9c-0.6,0-1.1-0.3-1.4-0.8l11.1-8.9l4.8,4.8l4.8-4.8l5.7,4.6h1.3L25,26.7l10.8-10.8c0,0,0,0,0,0
		v15.9h0.8V15.9c0-1.4-1.1-2.6-2.4-2.6h-29c-1.3,0-2.4,1.2-2.4,2.6v19.2c0,1.4,1.1,2.6,2.4,2.6h16.5v-0.8H5.2z M3.8,14.9
		c0.3-0.5,0.8-0.8,1.4-0.8h29c0.6,0,1.1,0.3,1.4,0.8h0.1l-16,16l-16-16H3.8z M3.5,35.1V15.9c0,0,0,0,0,0l10.8,10.8L3.6,35.3
		C3.5,35.2,3.5,35.2,3.5,35.1z"/>
	<path fill="#662483" d="M35.7,14.9h-0.1c-0.3-0.5-0.8-0.8-1.4-0.8h-29c-0.6,0-1.1,0.3-1.4,0.8H3.7l16,16L35.7,14.9z"/>
	<path fill="#FFFFFF" d="M103.3,70.2l0,12.3l-75.7-0.1l0-45.6l75.7,0.1l0,9l5.3-1.6v-9.7c0-1-0.8-1.8-1.8-1.8H24.5
		c-1,0-1.8,0.8-1.8,1.8v52.2h29.6H79h29.6V71.8L103.3,70.2z M61.3,34.4h8.3c0.3,0,0.5,0.2,0.5,0.5c0,0.3-0.2,0.5-0.5,0.5h-8.3
		c-0.3,0-0.5-0.2-0.5-0.5C60.8,34.6,61,34.4,61.3,34.4z"/>
	<path fill="#FFFFFF" d="M102,69.8L89.2,66c-0.2,0.2-0.5,0.4-0.8,0.5l6.7,14.7l6.9,0L102,69.8z"/>
	<path fill="#FFFFFF" d="M102,38.1L28.8,38l0,43.1l60.9,0l-6.7-14.7c-0.9-0.4-1.6-1.3-1.6-2.4v-1h-0.7c-1.4,0-2.6-1.2-2.6-2.6v-5
		c0-1.4,1.2-2.6,2.6-2.6h0.7v-2.2c0-1.4,1.2-2.6,2.6-2.6h3.5c1.1,0,2.1,0.7,2.5,1.7l12.1-3.6L102,38.1z M73.2,48.1L73.2,48.1
		C73.2,48.1,73.2,48.1,73.2,48.1C73.2,48.1,73.2,48.1,73.2,48.1l-0.7,7.5c-0.1,0.7-0.7,1.3-1.4,1.3c0,0-0.1,0-0.1,0
		c-0.8-0.1-1.3-0.7-1.3-1.5l0.4-4.2L57.5,61.7c-0.2,0.2-0.6,0.3-0.9,0.3l-12.1,0l-7.9,10.7c-0.3,0.4-0.7,0.6-1.1,0.6
		c-0.3,0-0.6-0.1-0.8-0.3c-0.6-0.5-0.7-1.3-0.3-1.9l8.3-11.3c0.3-0.4,0.7-0.6,1.1-0.6l12.3,0L68.3,49l-4.2-0.4
		c-0.8-0.1-1.3-0.7-1.3-1.5c0.1-0.8,0.7-1.3,1.5-1.3l7.4,0.7c0,0,0,0,0.1,0c0,0,0,0,0,0c0,0,0,0,0.1,0c0,0,0,0,0.1,0
		C72.7,46.7,73.2,47.4,73.2,48.1z"/>
	<path fill="#662483" d="M61.3,35.3h8.3c0.3,0,0.5-0.2,0.5-0.5c0-0.3-0.2-0.5-0.5-0.5h-8.3c-0.3,0-0.5,0.2-0.5,0.5
		C60.8,35.1,61,35.3,61.3,35.3z"/>
	<path fill="#FFFFFF" d="M113.9,87.9h-4.2H80c0,1.5-1.3,2.8-2.8,2.8H54.1c-1.5,0-2.8-1.2-2.8-2.8H21.7h-4.2c-1,0-1.8,0.8-1.8,1.8
		v2.5c0,1,0.8,1.8,1.8,1.8h96.4c1,0,1.8-0.8,1.8-1.8v-2.5C115.6,88.7,114.8,87.9,113.9,87.9z"/>
	<path fill="#00CFFF" d="M138.1,98.8H124c-0.8,0-1.4,0.6-1.4,1.4v9.4c0,0.8,0.6,1.4,1.4,1.4h14.1c0.8,0,1.4-0.6,1.4-1.4v-9.4
		C139.5,99.5,138.9,98.8,138.1,98.8z M133.9,105.5l4.8-4.8v8.6L133.9,105.5z M124,99.6h14.1c0.2,0,0.3,0.1,0.4,0.2l-7.5,7.5
		l-7.5-7.5C123.7,99.7,123.9,99.6,124,99.6z M123.4,109.3v-8.6l4.8,4.8L123.4,109.3z M124,110.3c-0.2,0-0.3-0.1-0.4-0.2l5.1-4.1
		l2.3,2.3l2.3-2.3l5.1,4.1c-0.1,0.1-0.2,0.2-0.4,0.2H124z"/>
	<path fill="#00CFFF" d="M121.2,74.4V41.7L90,50.9v13.2c0,0.2,0,0.4-0.1,0.6v0.4L121.2,74.4z"/>
	<polygon fill="#FFFFFF" points="84.4,66.8 91,81.1 93.7,81.1 87.1,66.8 	"/>
	<path fill="#FFFFFF" d="M123.6,78.4c0.7,0,1.2-0.5,1.2-1.2V38.9c0-0.7-0.5-1.2-1.2-1.2c-0.7,0-1.2,0.5-1.2,1.2v38.4
		C122.4,77.9,123,78.4,123.6,78.4z"/>
	<path fill="#662483" d="M126,77.3V64.6c1-0.1,1.8-0.8,1.8-1.7v-9.8c0-0.9-0.8-1.6-1.8-1.7V38.9c0-1.3-1.1-2.4-2.4-2.4
		c-1.3,0-2.4,1.1-2.4,2.4v1.7L109.6,44v-9.4c0-1.6-1.3-2.8-2.8-2.8H36.6h-0.8V15.9c0,0,0,0,0,0L25,26.7l6.4,5.2h-1.3l-5.7-4.6
		L19.7,32l-4.8-4.8L3.8,36.1c0.3,0.5,0.8,0.8,1.4,0.8h16.5v0.8v49.1h-4.2c-1.6,0-2.8,1.3-2.8,2.8v2.5c0,1.6,1.3,2.8,2.8,2.8h96.4
		c1.6,0,2.8-1.3,2.8-2.8v-2.5c0-1.6-1.3-2.8-2.8-2.8h-4.2V72.1l11.6,3.4v1.7c0,1.3,1.1,2.4,2.4,2.4C125,79.7,126,78.6,126,77.3z
		 M115.6,92.1c0,1-0.8,1.8-1.8,1.8H17.4c-1,0-1.8-0.8-1.8-1.8v-2.5c0-1,0.8-1.8,1.8-1.8h4.2h29.6c0,1.5,1.3,2.8,2.8,2.8h23.1
		c1.5,0,2.8-1.2,2.8-2.8h29.6h4.2c1,0,1.8,0.8,1.8,1.8V92.1z M79,86.8H52.3H22.7V34.7c0-1,0.8-1.8,1.8-1.8h82.3c1,0,1.8,0.8,1.8,1.8
		v9.7l-5.3,1.6l0-9l-75.7-0.1l0,45.6l75.7,0.1l0-12.3l5.3,1.6v15.1H79z M91,81.1l-6.6-14.3h2.7l6.6,14.3H91z M82.5,63.1V52.9v-2.2
		c0-0.8,0.6-1.4,1.4-1.4h3.5c0.8,0,1.4,0.6,1.4,1.4v13.4c0,0.8-0.6,1.4-1.4,1.4h-3.5c-0.8,0-1.4-0.6-1.4-1.4V63.1z M81.3,54.1v7.8
		h-0.7c-0.8,0-1.4-0.6-1.4-1.4v-5c0-0.8,0.6-1.4,1.4-1.4H81.3z M88.4,66.6c0.3-0.1,0.6-0.3,0.8-0.5l12.8,3.8l0,11.4l-6.9,0
		L88.4,66.6z M87.4,48.1h-3.5c-1.4,0-2.6,1.2-2.6,2.6v2.2h-0.7c-1.4,0-2.6,1.2-2.6,2.6v5c0,1.4,1.2,2.6,2.6,2.6h0.7v1
		c0,1.1,0.7,2,1.6,2.4l6.7,14.7l-60.9,0l0-43.1l73.2,0.1l0,8.2l-12.1,3.6C89.5,48.8,88.6,48.1,87.4,48.1z M90,65.2v-0.4
		c0-0.2,0.1-0.4,0.1-0.6V50.9l31.2-9.2v32.7L90,65.2z M122.4,38.9c0-0.7,0.5-1.2,1.2-1.2c0.7,0,1.2,0.5,1.2,1.2v38.4
		c0,0.7-0.5,1.2-1.2,1.2c-0.7,0-1.2-0.5-1.2-1.2V38.9z"/>
	<path fill="#FFFFFF" d="M83.9,65.5h3.5c0.8,0,1.4-0.6,1.4-1.4V50.7c0-0.8-0.6-1.4-1.4-1.4h-3.5c-0.8,0-1.4,0.6-1.4,1.4v2.2v10.2v1
		C82.5,64.9,83.2,65.5,83.9,65.5z"/>
	<path fill="#FFFFFF" d="M79.2,55.5v5c0,0.8,0.6,1.4,1.4,1.4h0.7v-7.8h-0.7C79.9,54.1,79.2,54.8,79.2,55.5z"/>
	<path fill="#662483" d="M130.7,58.2c0,0.3,0.3,0.6,0.6,0.6h6.9c0.3,0,0.6-0.3,0.6-0.6c0-0.3-0.3-0.6-0.6-0.6h-6.9
		C131,57.5,130.7,57.8,130.7,58.2z"/>
	<path fill="#662483" d="M131.3,54.6c0.2,0,0.3-0.1,0.4-0.2l4.9-4.9c0.2-0.2,0.2-0.6,0-0.9c-0.2-0.2-0.6-0.2-0.9,0l-4.9,4.9
		c-0.2,0.2-0.2,0.6,0,0.9C131,54.6,131.1,54.6,131.3,54.6z"/>
	<path fill="#662483" d="M135.8,67.7c0.1,0.1,0.3,0.2,0.4,0.2s0.3-0.1,0.4-0.2c0.2-0.2,0.2-0.6,0-0.9l-4.9-4.9
		c-0.2-0.2-0.6-0.2-0.9,0c-0.2,0.2-0.2,0.6,0,0.9L135.8,67.7z"/>
	<path fill="#00CFFF" d="M72.1,46.6C72,46.6,72,46.6,72.1,46.6c-0.1,0-0.1,0-0.1,0c0,0,0,0,0,0c0,0,0,0-0.1,0l-7.4-0.7
		c-0.8-0.1-1.4,0.5-1.5,1.3c-0.1,0.8,0.5,1.4,1.3,1.5l4.2,0.4L56.1,59.3l-12.3,0c-0.4,0-0.9,0.2-1.1,0.6l-8.3,11.3
		c-0.5,0.6-0.3,1.5,0.3,1.9c0.2,0.2,0.5,0.3,0.8,0.3c0.4,0,0.8-0.2,1.1-0.6l7.9-10.7l12.1,0c0.3,0,0.6-0.1,0.9-0.3l12.6-10.5
		l-0.4,4.2c-0.1,0.8,0.5,1.4,1.3,1.5c0,0,0.1,0,0.1,0c0.7,0,1.3-0.5,1.4-1.3l0.7-7.5c0,0,0,0,0,0c0,0,0,0,0,0l0,0
		C73.2,47.4,72.7,46.7,72.1,46.6z"/>
</g>
</svg>
